<svg width="59" height="58" viewBox="0 0 59 58" fill="none" xmlns="http://www.w3.org/2000/svg">
<path fill-rule="evenodd" clip-rule="evenodd" d="M5.154 1.30027C7.98368 0.678064 13.2539 0 22.8516 0C32.4492 0 37.7194 0.678064 40.5491 1.30027C43.2234 1.88871 44.7329 4.12294 45.0071 6.47668C45.1586 7.77175 45.3283 9.47471 45.4628 11.4777C43.7252 10.958 41.9796 10.4652 40.2266 9.99949C30.8039 7.48858 25.2346 6.71569 21.9505 6.5702C17.2026 6.36237 13.8389 9.4773 12.4835 12.8793C10.9357 16.7795 9.61251 20.7643 8.52036 24.8143C7.37048 29.0695 7.114 33.5147 7.76692 37.8728C2.7892 32.8107 0 25.8431 0 18.5753C0 13.46 0.387823 9.11879 0.695993 6.47668C0.970212 4.12294 2.48103 1.89 5.154 1.30027ZM39.2107 13.7639C29.9394 11.292 24.6731 10.5905 21.7782 10.4645C19.0412 10.3437 17.0029 12.1129 16.1254 14.3147C14.6333 18.0753 13.3576 21.9174 12.3046 25.8223C9.68906 35.5334 12.3777 46.0642 19.9474 52.8994C22.2822 55.0089 24.9565 57.0314 27.3827 57.6783C29.8089 58.3252 33.1413 57.903 36.223 57.2366C46.2137 55.0829 53.8356 47.2995 56.4499 37.5897C57.5013 33.6843 58.3283 29.7225 58.927 25.7236C59.2743 23.3802 58.3981 20.8329 55.9667 19.5768C53.3969 18.2467 48.4832 16.2346 39.2107 13.7639ZM40.4538 30.1569C39.4692 30.6765 38.3384 30.9545 37.5262 29.8946C36.8445 29.0074 37.0861 27.7318 37.978 27.1018C38.1808 26.9578 38.3938 26.8284 38.6152 26.7147C39.1489 26.4331 39.7156 26.2185 40.3023 26.0756C41.7583 25.7197 43.7405 25.7093 45.8624 26.9277C47.9843 28.1461 48.9663 29.8595 49.3829 31.291C49.5866 31.9898 49.6545 32.6107 49.6701 33.0653C49.6832 33.4083 49.6662 33.6642 49.6518 33.8058C49.55 34.8904 48.5602 35.736 47.4464 35.5931C46.1183 35.4217 45.7945 34.3098 45.7553 33.2017C45.7451 32.9219 45.6999 32.6444 45.6208 32.3756C45.438 31.7495 45.0123 30.9389 43.9037 30.3024C42.7938 29.6659 41.8758 29.7036 41.2399 29.8595C40.9665 29.9254 40.7025 30.0262 40.4538 30.1569ZM33.5774 25.9288C34.0318 26.916 33.6009 28.1422 32.5641 28.5722C31.3275 29.0853 30.4879 28.2825 29.8977 27.3421C29.7471 27.1061 29.5686 26.889 29.3662 26.6952C28.8935 26.2431 28.1179 25.7534 26.8369 25.7534C25.5559 25.7534 24.7802 26.2431 24.3062 26.6952C24.1042 26.8891 23.9263 27.1062 23.7761 27.3421C23.7337 27.4095 23.6945 27.4789 23.6585 27.5499C23.4536 28.0193 23.0712 28.3897 22.594 28.581C22.1169 28.7723 21.5832 28.7691 21.1083 28.5722C20.0715 28.1435 19.6406 26.9173 20.0963 25.9288C20.1163 25.8846 20.1424 25.8305 20.1747 25.7664C20.5438 25.0673 21.023 24.4314 21.5941 23.8829C22.6753 22.8515 24.3872 21.8565 26.8369 21.8565C29.2865 21.8565 30.9985 22.8515 32.0797 23.8829C32.6072 24.3869 32.9767 24.8909 33.2196 25.2767C33.4024 25.5677 33.5173 25.7989 33.5761 25.9288M23.1689 35.2022C23.4234 35.1648 23.6829 35.1777 23.9325 35.2401C24.182 35.3026 24.4168 35.4133 24.6233 35.566C24.8298 35.7188 25.004 35.9105 25.1361 36.1302C25.2681 36.3499 25.3553 36.5934 25.3926 36.8467C25.6564 38.6353 26.453 40.6267 27.5368 42.253C28.6624 43.9377 29.8663 44.8899 30.7621 45.1289C31.6579 45.3679 33.1805 45.1419 35.002 44.2417C36.7584 43.374 38.4494 42.0451 39.5776 40.6267C39.9021 40.2278 40.3717 39.9724 40.8843 39.9159C41.397 39.8594 41.9114 40.0064 42.3158 40.3248C42.7203 40.6433 42.9821 41.1077 43.0444 41.617C43.1068 42.1264 42.9646 42.6396 42.6488 43.0454C41.1289 44.9561 38.9665 46.6344 36.7453 47.732C34.5894 48.7972 32.0052 49.4948 29.7488 48.8933C27.4924 48.2919 25.6055 46.4032 24.2736 44.408C22.9025 42.353 21.8735 39.8239 21.517 37.413C21.4415 36.9018 21.5733 36.3816 21.8833 35.967C22.1934 35.5524 22.6549 35.2773 23.1689 35.2022Z" fill="#C6B08B"/>
</svg>
