<svg width="58" height="58" viewBox="0 0 58 58" fill="none" xmlns="http://www.w3.org/2000/svg">
<path d="M58 17.7721L57.9887 26.0691C57.9773 32.0347 55.2699 37.6117 50.7387 41.2803C50.75 41.0631 50.75 40.846 50.75 40.6288V39.7146C50.75 31.509 46.5586 23.8748 39.6598 19.5206L32.8402 15.2235C31.866 14.6064 30.8125 14.2635 29.7477 14.1493L24.548 5.06368C23.8004 3.74941 24.2422 2.06944 25.5449 1.31517C26.8477 0.560892 28.5129 1.0066 29.2605 2.32086L38.0965 17.7606C38.4703 18.412 39.3086 18.6406 39.9543 18.2635C40.6 17.8863 40.8266 17.0406 40.4527 16.3892L33.4293 4.11512C32.6816 2.80086 33.1234 1.12088 34.4262 0.36661C35.7289 -0.387664 37.3828 0.0580429 38.1305 1.37231L45.8336 14.835L50.7387 23.4063L50.75 17.7721C50.75 15.7492 52.3812 14.115 54.375 14.115C56.3688 14.115 58 15.7607 58 17.7721ZM24.0043 9.60075L26.791 14.4578C25.2164 14.9721 23.8004 16.0235 22.8602 17.5435C22.7582 17.7035 22.6676 17.8749 22.577 18.0463L19.3031 12.3321C18.5555 11.0179 18.9973 9.3379 20.3 8.58362C21.6027 7.82935 23.268 8.27506 24.0156 9.58932L24.0043 9.60075ZM18.748 16.8806L21.784 22.1834C21.852 22.8691 22.0219 23.532 22.2711 24.172H16.6523L14.0469 19.6235C13.2992 18.3092 13.741 16.6292 15.0438 15.8749C16.3465 15.1207 18.0117 15.5664 18.7594 16.8806H18.748ZM25.9301 19.4863C26.9949 17.7721 29.2266 17.2578 30.9258 18.3206L37.7453 22.6177C43.5793 26.3091 47.125 32.7661 47.125 39.7146V40.6288C47.125 50.2173 39.4105 58 29.9062 58H9.96875C8.46211 58 7.25 56.7772 7.25 55.2572C7.25 53.7372 8.46211 52.5144 9.96875 52.5144H20.3906C21.1383 52.5144 21.75 51.8972 21.75 51.143C21.75 50.3887 21.1383 49.7716 20.3906 49.7716H6.34375C4.83711 49.7716 3.625 48.5487 3.625 47.0287C3.625 45.5088 4.83711 44.2859 6.34375 44.2859H20.3906C21.1383 44.2859 21.75 43.6688 21.75 42.9145C21.75 42.1602 21.1383 41.5431 20.3906 41.5431H2.71875C1.21211 41.5431 0 40.3203 0 38.8003C0 37.2803 1.21211 36.0575 2.71875 36.0575H20.3906C21.1383 36.0575 21.75 35.4403 21.75 34.6861C21.75 33.9318 21.1383 33.3147 20.3906 33.3147H6.34375C4.83711 33.3147 3.625 32.0918 3.625 30.5719C3.625 29.0519 4.83711 27.829 6.34375 27.829H32.3078L27.0742 24.5262C25.375 23.452 24.8652 21.2006 25.9187 19.4863H25.9301Z" fill="#C6B08B"/>
</svg>
