<svg width="23" height="13" viewBox="0 0 23 13" fill="none" xmlns="http://www.w3.org/2000/svg">
<path d="M8.02934 6.22222C7.31823 6.93333 4.47379 0.888889 4.02934 0.444444L0.792685 0.76811C0.194595 0.827919 -0.170998 1.4469 0.0804885 1.99283C1.09239 4.18948 3.46104 9.03669 5.36268 10.6667C8.47379 13.3333 11.1405 12.8889 12.0293 12.8889C12.7405 12.8889 12.9182 12.5926 12.9182 12.4444C13.2738 9.6 14.2516 9.77778 14.696 10.2222C15.4071 10.5778 16.4738 12.8889 18.2516 12.8889H20.9182C21.5108 12.8889 22.696 12.8 22.696 12.4444C22.696 11.1111 20.4738 9.33333 19.5849 8.44444C18.8738 7.73333 18.9923 6.96296 19.1405 6.66667C19.4368 6.22222 20.296 4.97778 21.3627 3.55556C22.696 1.77778 22.696 0.444444 22.2516 0.444444H17.3627C16.0293 4 14.2516 5.77778 13.8071 6.22222C13.4516 6.57778 13.0664 5.77774 12.9182 5.33327C12.9182 3.55549 14.2516 -4.72713e-07 11.1405 0C8.27388 4.35558e-07 8.47379 -1.58946e-07 8.47379 0.444444C8.47379 0.444444 8.91823 6.66667 8.02934 6.22222Z" fill="#CBD1D3"/>
</svg>
