<svg width="21" height="15" viewBox="0 0 21 15" fill="none" xmlns="http://www.w3.org/2000/svg">
<path d="M8.4 10.7143L13.8495 7.5L8.4 4.28571V10.7143ZM20.538 2.325C20.6745 2.82857 20.769 3.50357 20.832 4.36071C20.9055 5.21786 20.937 5.95714 20.937 6.6L21 7.5C21 9.84643 20.832 11.5714 20.538 12.675C20.2755 13.6393 19.6665 14.2607 18.7215 14.5286C18.228 14.6679 17.325 14.7643 15.939 14.8286C14.574 14.9036 13.3245 14.9357 12.1695 14.9357L10.5 15C6.1005 15 3.36 14.8286 2.2785 14.5286C1.3335 14.2607 0.7245 13.6393 0.462 12.675C0.3255 12.1714 0.231 11.4964 0.168 10.6393C0.0945001 9.78214 0.0629999 9.04286 0.0629999 8.4L0 7.5C0 5.15357 0.168 3.42857 0.462 2.325C0.7245 1.36071 1.3335 0.739286 2.2785 0.471429C2.772 0.332143 3.675 0.235714 5.061 0.171428C6.426 0.0964284 7.6755 0.0642857 8.8305 0.0642857L10.5 0C14.8995 0 17.64 0.171429 18.7215 0.471429C19.6665 0.739286 20.2755 1.36071 20.538 2.325Z" fill="white"/>
</svg>
